<svg xmlns="http://www.w3.org/2000/svg" width="48" height="48" fill="none" viewBox="0 0 48 48">
    <mask id="mask0_1_3771" width="43" height="48" x="3" y="0" maskUnits="userSpaceOnUse" style="mask-type:alpha">
        <path fill="#DC2626" d="M45 33.679V14.322a4 4 0 0 0-2.015-3.473l-17-9.715a4 4 0 0 0-3.97 0l-17 9.715A4 4 0 0 0 3 14.322v19.357a4 4 0 0 0 2.015 3.473l17 9.714a4 4 0 0 0 3.97 0l17-9.714A4 4 0 0 0 45 33.679"/>
    </mask>
    <g mask="url(#mask0_1_3771)">
        <path fill="#A3A3A3" d="M45 33.679V14.322a4 4 0 0 0-2.015-3.473l-17-9.715a4 4 0 0 0-3.97 0l-17 9.715A4 4 0 0 0 3 14.322v19.357a4 4 0 0 0 2.015 3.473l17 9.714a4 4 0 0 0 3.97 0l17-9.714A4 4 0 0 0 45 33.679"/>
        <path fill="#525252" d="M3 33.679a4 4 0 0 0 2.015 3.473l17.04 9.737A1.3 1.3 0 0 0 24 45.759V26.323a4 4 0 0 0-2.015-3.473l-17.04-9.737A1.3 1.3 0 0 0 3 14.24z"/>
    </g>
</svg>
